<?xml version="1.0" encoding="UTF-8" standalone="no"?>
<!DOCTYPE svg PUBLIC "-//W3C//DTD SVG 1.1//EN" "http://www.w3.org/Graphics/SVG/1.1/DTD/svg11.dtd">
<svg width="100%" height="100%" viewBox="0 0 16 16" version="1.1" xmlns="http://www.w3.org/2000/svg" xmlns:xlink="http://www.w3.org/1999/xlink" xml:space="preserve" xmlns:serif="http://www.serif.com/" style="fill-rule:evenodd;clip-rule:evenodd;stroke-linejoin:round;stroke-miterlimit:2;">
    <g id="Icon" transform="matrix(0.010127,0,0,0.010127,3.271,1.99522)">
        <g id="Head" transform="matrix(101.464,0,0,101.464,-323.075,-231.361)">
            <path d="M2.217,8.788C2.452,8.561 2.582,8.236 2.224,7.821C1.611,7.11 -0.53,6.599 0.166,5.258C0.501,4.611 1.363,4.346 2.224,4.38C3.515,4.43 5.016,5.707 5.29,6.065C5.381,5.974 5.481,5.895 5.582,5.817C5.669,5.907 5.792,5.962 5.927,5.962C6.193,5.962 6.41,5.746 6.41,5.479C6.41,5.279 6.288,5.107 6.114,5.034C6.114,5.034 6.087,4.637 6.081,4.426C6.071,3.81 5.935,2.639 4.507,2.639C4.118,2.639 2.562,3.046 4.036,4.204C4.566,4.621 5.274,5.02 5.658,5.25C5.63,5.284 5.61,5.321 5.596,5.359C5.125,5.195 4.23,4.831 3.565,4.416C3.104,4.127 2.653,3.536 2.979,2.799C3.106,2.515 3.633,1.977 4.507,1.977C6.5,1.977 7.046,3.582 7.3,4.009C7.467,4.289 7.62,4.593 7.753,4.89L8.23,4.852C8.231,4.852 8.232,4.852 8.233,4.852L8.233,4.852C8.392,4.854 8.55,4.864 8.708,4.89C8.841,4.593 9.746,2.272 11.532,2.272C12.091,2.272 12.892,2.436 13.231,3.292C13.178,3.308 13.128,3.338 13.086,3.38C13.075,3.391 13.065,3.402 13.056,3.414C12.444,3.022 12.222,2.975 11.707,2.975C10.595,2.975 10.348,5.096 10.303,5.429C10.454,5.525 10.612,5.608 10.752,5.721C10.895,5.831 11.041,5.936 11.17,6.065C11.429,5.894 11.671,5.733 11.975,5.569C12.655,5.203 13.264,4.997 13.99,4.997C15.196,4.997 15.929,6.098 15.395,6.886C14.664,7.966 13.626,7.463 12.906,6.697C12.963,6.681 13.017,6.65 13.062,6.605C13.083,6.584 13.101,6.562 13.116,6.537C13.673,6.83 14.227,7.185 14.693,6.526C14.979,6.12 14.596,5.785 14.166,5.785C13.833,5.785 13.526,5.954 13.257,6.187L13.158,6.277L13.258,6.187C13.189,6.003 13.012,5.873 12.805,5.873C12.539,5.873 12.322,6.089 12.322,6.356C12.322,6.581 12.477,6.771 12.687,6.824L12.688,6.823C12.476,7.11 12.324,7.369 12.25,7.463L12.244,7.463L12.244,9.886L10.746,10.029C10.668,10.037 10.608,10.099 10.602,10.177L10.556,10.833L9.261,10.925L9.172,10.32C9.16,10.242 9.093,10.184 9.014,10.184L7.447,10.184C7.368,10.184 7.3,10.242 7.289,10.32L7.199,10.925L5.904,10.833L5.858,10.177C5.853,10.099 5.792,10.037 5.714,10.029L4.216,9.886L4.216,7.463L4.211,7.463C4.052,7.147 3.897,6.926 3.657,6.665C3.401,6.388 2.706,5.714 2.049,5.434C1.588,5.237 1.044,5.285 0.907,5.609C0.565,6.419 1.949,6.617 2.575,7.541C3.057,8.252 2.696,8.711 2.275,8.942C2.268,8.888 2.249,8.835 2.217,8.788ZM7.213,9.131C7.778,9.696 8.694,9.696 9.259,9.131C9.823,8.566 9.823,7.651 9.258,7.086C8.694,6.522 7.778,6.522 7.214,7.086C6.649,7.651 6.649,8.566 7.213,9.131ZM12.696,6.811L12.695,6.813L12.696,6.811Z" style="fill:white;fill-rule:nonzero;"/>
        </g>
        <g id="Jaw" transform="matrix(4.16261,0,0,-4.16261,784.071,817.243)">
            <path d="M0,0L-1.121,-16.063C-1.256,-17.999 -2.796,-19.54 -4.732,-19.679L-43.287,-22.43C-43.381,-22.437 -43.475,-22.44 -43.568,-22.44C-45.484,-22.44 -47.137,-21.034 -47.42,-19.11L-49.631,-4.116L-81.09,-4.116L-83.301,-19.11C-83.598,-21.128 -85.402,-22.579 -87.434,-22.43L-125.989,-19.679C-127.925,-19.54 -129.465,-17.999 -129.6,-16.063L-130.721,0L-163.268,3.138C-163.253,-0.36 -163.208,-4.192 -163.208,-4.955C-163.208,-39.329 -119.603,-55.851 -65.427,-56.041L-65.294,-56.041C-11.118,-55.851 32.472,-39.329 32.472,-4.955C32.472,-4.178 32.519,-0.362 32.535,3.138L0,0Z" style="fill:white;fill-rule:nonzero;"/>
        </g>
        <g id="Pupil--Center-" serif:id="Pupil (Center)" transform="matrix(4.75606,-4.75606,-4.75606,-4.75606,439.95,676.281)">
            <path d="M0,0C0,-7.994 6.477,-14.473 14.471,-14.473C22.473,-14.473 28.95,-7.994 28.95,0C28.95,7.994 22.473,14.479 14.471,14.479C6.477,14.479 0,7.994 0,0" style="fill:white;fill-rule:nonzero;"/>
        </g>
        <g id="Left-Eye" serif:id="Left Eye">
            <g id="Pupil--Left-" serif:id="Pupil (Left)" transform="matrix(1.17129,-1.17129,-1.17129,-1.17129,-145.928,701.496)">
                <path d="M0,0C0,-7.994 6.477,-14.473 14.471,-14.473C22.473,-14.473 28.95,-7.994 28.95,0C28.95,7.994 22.473,14.479 14.471,14.479C6.477,14.479 0,7.994 0,0" style="fill:white;fill-rule:nonzero;"/>
            </g>
            <g id="Eye--Left-" serif:id="Eye (Left)" transform="matrix(101.464,0,0,101.464,-323.075,-231.361)">
                <path d="M1.922,8.571C2.156,8.571 2.347,8.761 2.347,8.995C2.347,9.229 2.156,9.42 1.922,9.42C1.688,9.42 1.498,9.229 1.498,8.995C1.498,8.761 1.688,8.571 1.922,8.571ZM1.67,9.24C1.809,9.379 2.035,9.379 2.174,9.24C2.313,9.101 2.313,8.875 2.174,8.736C2.035,8.597 1.81,8.597 1.671,8.736C1.531,8.875 1.531,9.101 1.67,9.24Z" style="fill:white;"/>
            </g>
        </g>
        <g id="Top-Left-Eye" serif:id="Top Left Eye">
            <g id="Pupil--Top-Left-" serif:id="Pupil (Top Left)" transform="matrix(1.17129,-1.17129,-1.17129,-1.17129,260.919,345.319)">
                <path d="M0,0C0,-7.994 6.477,-14.473 14.471,-14.473C22.473,-14.473 28.95,-7.994 28.95,0C28.95,7.994 22.473,14.479 14.471,14.479C6.477,14.479 0,7.994 0,0" style="fill:white;fill-rule:nonzero;"/>
            </g>
            <g id="Eye--Top-Left-" serif:id="Eye (Top Left)" transform="matrix(101.464,0,0,101.464,-323.075,-231.361)">
                <path d="M5.932,5.06C6.166,5.06 6.356,5.251 6.356,5.485C6.356,5.719 6.166,5.909 5.932,5.909C5.698,5.909 5.508,5.719 5.508,5.485C5.508,5.251 5.698,5.06 5.932,5.06ZM5.68,5.729C5.819,5.868 6.045,5.868 6.184,5.729C6.323,5.59 6.323,5.365 6.184,5.226C6.045,5.087 5.819,5.087 5.68,5.226C5.541,5.365 5.541,5.59 5.68,5.729Z" style="fill:white;"/>
            </g>
        </g>
        <g id="Right-Eye" serif:id="Right Eye">
            <g id="Pupil--Right-" serif:id="Pupil (Right)" transform="matrix(1.17129,-1.17129,-1.17129,-1.17129,958.836,434.214)">
                <path id="path108-9" d="M0,0C0,-7.994 6.477,-14.473 14.471,-14.473C22.473,-14.473 28.95,-7.994 28.95,0C28.95,7.994 22.473,14.479 14.471,14.479C6.477,14.479 0,7.994 0,0" style="fill:white;fill-rule:nonzero;"/>
            </g>
            <g id="Eye--Right-" serif:id="Eye (Right)" transform="matrix(101.464,0,0,101.464,-323.075,-231.361)">
                <path d="M12.81,5.937C13.045,5.937 13.235,6.127 13.235,6.361C13.235,6.595 13.045,6.785 12.81,6.785C12.576,6.785 12.386,6.595 12.386,6.361C12.386,6.127 12.576,5.937 12.81,5.937ZM12.559,6.605C12.698,6.744 12.923,6.744 13.062,6.605C13.201,6.466 13.201,6.241 13.062,6.102C12.923,5.963 12.698,5.963 12.559,6.102C12.42,6.241 12.42,6.466 12.559,6.605Z" style="fill:white;"/>
            </g>
        </g>
        <g id="Top-RIght-Eye" serif:id="Top RIght Eye">
            <g id="Pupil--Top-Right-" serif:id="Pupil (Top Right)" transform="matrix(1.17129,-1.17129,-1.17129,-1.17129,1012.29,158.023)">
                <path id="path108-91" serif:id="path108-9" d="M0,0C0,-7.994 6.477,-14.473 14.471,-14.473C22.473,-14.473 28.95,-7.994 28.95,0C28.95,7.994 22.473,14.479 14.471,14.479C6.477,14.479 0,7.994 0,0" style="fill:white;fill-rule:nonzero;"/>
            </g>
            <g id="Eye--Top-Right-" serif:id="Eye (Top Right)" transform="matrix(101.464,0,0,101.464,-323.075,-231.361)">
                <path d="M13.337,3.214C13.571,3.214 13.762,3.405 13.762,3.639C13.762,3.873 13.571,4.063 13.337,4.063C13.103,4.063 12.913,3.873 12.913,3.639C12.913,3.405 13.103,3.214 13.337,3.214ZM13.085,3.883C13.225,4.022 13.45,4.022 13.589,3.883C13.728,3.744 13.728,3.519 13.589,3.38C13.45,3.241 13.225,3.241 13.086,3.38C12.946,3.519 12.946,3.744 13.085,3.883Z" style="fill:white;"/>
            </g>
        </g>
    </g>
</svg>
